<mxfile host="65bd71144e">
    <diagram id="ItKsI4qIQaQC1rmIp6Tm" name="Page-1">
        <mxGraphModel dx="1176" dy="364" grid="0" gridSize="10" guides="1" tooltips="1" connect="1" arrows="1" fold="1" page="1" pageScale="1" pageWidth="827" pageHeight="1169" math="0" shadow="0">
            <root>
                <mxCell id="0"/>
                <mxCell id="1" parent="0"/>
                <mxCell id="13" value="1:N" style="edgeStyle=none;html=1;fontFamily=Helvetica;fontSize=14;" parent="1" source="2" target="5" edge="1">
                    <mxGeometry x="-0.4132" y="9" relative="1" as="geometry">
                        <mxPoint as="offset"/>
                    </mxGeometry>
                </mxCell>
                <mxCell id="2" value="&lt;font style=&quot;font-size: 21px&quot;&gt;&lt;b&gt;Users&lt;br&gt;&lt;/b&gt;&lt;br&gt;&lt;br&gt;&lt;/font&gt;" style="whiteSpace=wrap;html=1;aspect=fixed;fontFamily=Helvetica;horizontal=1;verticalAlign=top;" parent="1" vertex="1">
                    <mxGeometry x="-26" y="30" width="174" height="174" as="geometry"/>
                </mxCell>
                <mxCell id="4" value="&lt;span&gt;Id&lt;br&gt;Name&lt;/span&gt;&lt;br&gt;&lt;span&gt;Email&lt;/span&gt;&lt;br&gt;&lt;span&gt;Password&lt;/span&gt;&lt;br&gt;&lt;span&gt;Cpf&lt;/span&gt;&lt;br&gt;&lt;span&gt;Role&lt;/span&gt;" style="text;html=1;resizable=0;autosize=1;align=center;verticalAlign=middle;points=[];fillColor=none;strokeColor=none;rounded=0;fontFamily=Helvetica;fontSize=14;" parent="1" vertex="1">
                    <mxGeometry x="25.5" y="77" width="71" height="106" as="geometry"/>
                </mxCell>
                <mxCell id="16" value="N:N" style="edgeStyle=none;html=1;exitX=1;exitY=0.5;exitDx=0;exitDy=0;fontFamily=Helvetica;fontSize=14;" parent="1" source="5" target="7" edge="1">
                    <mxGeometry relative="1" as="geometry"/>
                </mxCell>
                <mxCell id="5" value="&lt;font style=&quot;font-size: 21px&quot;&gt;&lt;b&gt;Profile&lt;br&gt;&lt;/b&gt;&lt;br&gt;&lt;br&gt;&lt;br&gt;&lt;/font&gt;" style="whiteSpace=wrap;html=1;aspect=fixed;fontFamily=Helvetica;horizontal=1;verticalAlign=top;" parent="1" vertex="1">
                    <mxGeometry x="227" y="40" width="143" height="143" as="geometry"/>
                </mxCell>
                <mxCell id="6" value="&lt;font style=&quot;font-size: 14px&quot;&gt;Id&lt;br&gt;Title&lt;br&gt;ImageURL&lt;br&gt;Movies[]&lt;br&gt;&lt;/font&gt;" style="text;html=1;resizable=0;autosize=1;align=center;verticalAlign=middle;points=[];fillColor=none;strokeColor=none;rounded=0;fontFamily=Helvetica;fontSize=21;" parent="1" vertex="1">
                    <mxGeometry x="260" y="62" width="77" height="117" as="geometry"/>
                </mxCell>
                <mxCell id="15" value="N:N" style="edgeStyle=none;html=1;exitX=0;exitY=0.75;exitDx=0;exitDy=0;entryX=1.006;entryY=0.402;entryDx=0;entryDy=0;entryPerimeter=0;fontFamily=Helvetica;fontSize=14;" parent="1" source="7" target="11" edge="1">
                    <mxGeometry relative="1" as="geometry"/>
                </mxCell>
                <mxCell id="7" value="&lt;font style=&quot;font-size: 21px&quot;&gt;&lt;b&gt;Movies&lt;/b&gt;&lt;br&gt;&lt;br&gt;&lt;/font&gt;" style="whiteSpace=wrap;html=1;aspect=fixed;fontFamily=Helvetica;horizontal=1;verticalAlign=top;" parent="1" vertex="1">
                    <mxGeometry x="432" y="11" width="243" height="243" as="geometry"/>
                </mxCell>
                <mxCell id="8" value="&lt;font style=&quot;font-size: 14px&quot;&gt;Id&lt;br&gt;Title&lt;br&gt;Genre[]&lt;br&gt;Year&lt;br&gt;Note&lt;br&gt;TrailerYoutubeUrl&lt;br&gt;&lt;br&gt;&lt;br&gt;&lt;br&gt;&lt;/font&gt;" style="text;html=1;resizable=0;autosize=1;align=center;verticalAlign=middle;points=[];fillColor=none;strokeColor=none;rounded=0;fontFamily=Helvetica;fontSize=21;" parent="1" vertex="1">
                    <mxGeometry x="494.5" y="57" width="118" height="259" as="geometry"/>
                </mxCell>
                <mxCell id="11" value="&lt;font style=&quot;font-size: 21px&quot;&gt;&lt;b&gt;Genres&lt;/b&gt;&lt;br&gt;&lt;br&gt;&lt;br&gt;&lt;/font&gt;" style="whiteSpace=wrap;html=1;aspect=fixed;fontFamily=Helvetica;horizontal=1;verticalAlign=top;" parent="1" vertex="1">
                    <mxGeometry x="216" y="211" width="143" height="143" as="geometry"/>
                </mxCell>
                <mxCell id="12" value="&lt;font style=&quot;font-size: 14px&quot;&gt;Id&lt;br&gt;Name&lt;br&gt;Movies[]&lt;br&gt;&lt;/font&gt;" style="text;html=1;resizable=0;autosize=1;align=center;verticalAlign=middle;points=[];fillColor=none;strokeColor=none;rounded=0;fontFamily=Helvetica;fontSize=21;" parent="1" vertex="1">
                    <mxGeometry x="261" y="239" width="62" height="89" as="geometry"/>
                </mxCell>
            </root>
        </mxGraphModel>
    </diagram>
</mxfile>